<!DOCTYPE svg PUBLIC "-//W3C//DTD SVG 1.1//EN" "http://www.w3.org/Graphics/SVG/1.1/DTD/svg11.dtd">

<!-- Uploaded to: SVG Repo, www.svgrepo.com, Transformed by: SVG Repo Mixer Tools -->
<svg version="1.1" id="Layer_1" xmlns="http://www.w3.org/2000/svg" xmlns:xlink="http://www.w3.org/1999/xlink" viewBox="0 0 512 512" xml:space="preserve" width="350px" height="350px" fill="#000000">

<g id="SVGRepo_bgCarrier" stroke-width="0"/>

<g id="SVGRepo_tracerCarrier" stroke-linecap="round" stroke-linejoin="round"/>

<g id="SVGRepo_iconCarrier"> <polygon style="fill:#A18E84;" points="403.158,353.351 403.158,451.278 344.099,451.278 344.099,326.774 "/> <polygon style="fill:#4BAA62;" points="263.756,251.473 321.127,251.473 246.038,348.006 501.218,348.006 426.129,251.473 483.5,251.473 411.146,158.453 465.125,158.453 373.628,40.825 282.132,158.453 "/> <polygon style="fill:#A18E84;" points="167.902,326.774 167.902,451.278 108.842,451.278 108.842,353.351 "/> <polygon style="fill:#4BAA62;" points="229.868,158.453 138.372,40.825 46.876,158.453 100.855,158.453 28.5,251.473 85.87,251.473 10.782,348.006 265.961,348.006 190.873,251.473 248.243,251.473 "/> <polygon style="fill:#6BBD71;" points="386.543,348.006 311.454,251.473 368.825,251.473 296.471,158.453 350.449,158.453 258.953,40.825 167.458,158.453 221.436,158.453 149.081,251.473 206.452,251.473 131.363,348.006 "/> <rect x="229.421" y="347.998" style="fill:#A18E84;" width="59.061" height="103.276"/> <path style="fill:#939393;" d="M35.675,414.028c36.84,0,36.84,15.096,73.679,15.096c36.838,0,36.838-15.096,73.676-15.096 c36.84,0,36.84,15.096,73.68,15.096c36.841,0,36.841-15.096,73.682-15.096c36.843,0,36.843,15.096,73.685,15.096 s36.843-15.096,73.685-15.096v57.148H35.675V414.028z"/> <path style="fill:#231F20;" d="M509.729,341.387l-61.551-79.132H483.5c4.118,0,7.878-2.346,9.686-6.045 c1.809-3.701,1.353-8.107-1.175-11.357l-58.819-75.617h31.932c4.118,0,7.878-2.346,9.686-6.045 c1.809-3.701,1.353-8.107-1.175-11.357L382.14,34.205c-2.043-2.627-5.184-4.162-8.512-4.162s-6.468,1.537-8.512,4.162L316.29,96.977 l-48.826-62.772c-2.043-2.627-5.184-4.162-8.512-4.162s-6.468,1.537-8.511,4.162l-51.78,66.569l-51.779-66.569 c-2.043-2.627-5.184-4.162-8.512-4.162c-3.328,0-6.468,1.537-8.511,4.162L38.365,151.832c-2.529,3.251-2.985,7.658-1.175,11.357 s5.568,6.045,9.686,6.045h31.932L19.99,244.851c-2.529,3.251-2.985,7.658-1.175,11.357c1.809,3.7,5.568,6.045,9.686,6.045h35.323 L2.272,341.387c-2.529,3.251-2.985,7.658-1.175,11.357s5.568,6.045,9.686,6.045h87.277v58.938 c-9.112-1.08-14.965-3.469-21.456-6.129c-9.554-3.916-20.385-8.353-40.928-8.353c-5.955,0-10.783,4.828-10.783,10.783v57.148 c0,5.954,4.827,10.783,10.783,10.783h442.087c5.954,0,10.783-4.828,10.783-10.783v-57.148c0-5.954-4.828-10.783-10.783-10.783 c-20.545,0-31.376,4.437-40.932,8.353c-6.823,2.796-12.946,5.29-22.89,6.282v-59.092h87.277c4.118,0,7.878-2.346,9.686-6.045 C512.714,349.045,512.258,344.638,509.729,341.387z M258.954,58.386l69.447,89.284h-31.931c-4.118,0-7.878,2.346-9.686,6.045 c-1.809,3.701-1.353,8.107,1.175,11.357l58.818,75.617h-35.323c-4.118,0-7.878,2.346-9.686,6.045 c-1.809,3.701-1.353,8.107,1.175,11.357l61.552,79.132H153.41l61.551-79.132c2.529-3.251,2.985-7.658,1.175-11.357 c-1.809-3.7-5.568-6.045-9.686-6.045h-35.323l58.818-75.617c2.529-3.251,2.985-7.658,1.175-11.357 c-1.809-3.7-5.568-6.045-9.686-6.045h-31.931L258.954,58.386z M330.393,403.246c-13.996,0-23.479,2.061-31.126,4.612V358.79h34.049 v44.495C332.357,403.265,331.396,403.246,330.393,403.246z M218.641,358.79v50.68c-8.438-3.236-18.752-6.224-35.61-6.224 c-1.505,0-2.943,0.03-4.346,0.077v-44.532h39.956V358.79z M240.206,358.79h37.495v57.064c-5.429,1.503-11.844,2.488-20.99,2.488 c-6.764,0-12.023-0.543-16.505-1.432L240.206,358.79L240.206,358.79z M94.381,258.092c2.529-3.251,2.985-7.658,1.175-11.357 c-1.809-3.7-5.568-6.045-9.686-6.045H50.548l58.818-75.617c2.529-3.251,2.985-7.658,1.175-11.357 c-1.809-3.7-5.568-6.045-9.686-6.045H68.923l69.449-89.284l46.63,59.949l-26.056,33.497c-2.529,3.251-2.985,7.658-1.175,11.357 c1.809,3.7,5.568,6.045,9.686,6.045h31.931l-58.818,75.617c-2.529,3.251-2.985,7.658-1.175,11.357 c1.809,3.7,5.568,6.045,9.686,6.045h35.323l-58.314,74.969H32.83L94.381,258.092z M157.12,358.79v47.514 c-5.841,1.547-10.573,3.475-15.016,5.296c-6.73,2.758-12.773,5.224-22.48,6.243V358.79H157.12z M445.008,431.554 c6.616-2.712,12.556-5.144,21.973-6.195v35.034H46.459V425.36c9.414,1.05,15.353,3.483,21.968,6.194 c9.554,3.916,20.385,8.353,40.929,8.353c20.542,0,31.372-4.437,40.926-8.353c8.829-3.618,16.454-6.742,32.75-6.742 c16.297,0,23.922,3.124,32.752,6.742c9.554,3.916,20.385,8.353,40.929,8.353s31.374-4.437,40.93-8.353 c8.829-3.618,16.455-6.742,32.752-6.742c16.297,0,23.924,3.124,32.753,6.742c9.556,3.916,20.387,8.353,40.932,8.353 C424.621,439.907,435.452,435.47,445.008,431.554z M392.375,417.676c-8.881-1.103-14.66-3.458-21.053-6.078 c-4.8-1.967-9.926-4.065-16.441-5.666V358.79h37.494L392.375,417.676L392.375,417.676z M391.817,337.225l-58.314-74.969h35.323 c4.118,0,7.878-2.346,9.686-6.045c1.809-3.701,1.353-8.107-1.175-11.357l-58.818-75.618h31.931c4.118,0,7.878-2.346,9.686-6.045 c1.809-3.701,1.353-8.107-1.175-11.357l-29.008-37.294l43.677-56.153l69.449,89.284h-31.932c-4.118,0-7.878,2.346-9.686,6.045 c-1.809,3.701-1.353,8.107,1.175,11.357l58.819,75.617H426.13c-4.118,0-7.878,2.346-9.686,6.045 c-1.809,3.701-1.353,8.107,1.175,11.357l61.551,79.132H391.817z"/> </g>

</svg>